# xmcd CD database file
#
# Track frame offsets:
#	150
#	22607
#	37162
#	60092
#	77540
#	95433
#	107642
#	122562
#	138635
#	154975
#	164885
#	180747
#	194247
#	211952
#	229970
#	243562
#	264225
#	286560
#	300322
#	315743
#
# Disc length: 4312 seconds
#
# Revision: 5
# Processed by: cddbd v1.4PL0 Copyright (c) Steve Scherf et al.
# Submitted via: CDex 1.50beta9
#
DISCID=1010d614
DTITLE=Various Artist - Bessere Zeiten Klingen Gut (L'age D'or Kompilation) - CD 2
DYEAR=1900
DGENRE=
TTITLE0=Bungalow - Bungalow
TTITLE1=Huah!/Ich Möchte Ein Mädchen Kennenlernen
TTITLE2=Ostzonensuppenwürfelmachenkrebs/Blindfeind Blues
TTITLE3=Die Sterne/Fickt Das System
TTITLE4=Milch/Gott Ist Doof
TTITLE5=Kissin Cousins/Devonside
TTITLE6=Das Neue Brot/Messerhand
TTITLE7=Die Regierung/Es Ist Hier
TTITLE8=Hallelujah Ding Dong Happy Happy!/Lied Für Dich
TTITLE9=Tocotronic/Drüben Auf Dem Hügel
TTITLE10=Carnival Of Souls/Rehanimator
TTITLE11=Rockabilly Mafia/Ich Brauch Keinen HipHop
TTITLE12=Die Sterne/Du Darfst Nicht Vergessen Zu Essen
TTITLE13=Kolossale Jugend/Alle Feind
TTITLE14=Huah!/(Ohne Titel)
TTITLE15=Das Neue Brot/Ich Und Die Enten (Skunk Mix)
TTITLE16=Mastino/Sterne
TTITLE17=We Smile/Für Die Anderen
TTITLE18=Ostzonensuppenwürfelmachenkrebs/2.)
TTITLE19=Die Regierung/Loswerden
EXTD=
EXTT0=
EXTT1=
EXTT2=
EXTT3=
EXTT4=
EXTT5=
EXTT6=
EXTT7=
EXTT8=
EXTT9=
EXTT10=
EXTT11=
EXTT12=
EXTT13=
EXTT14=
EXTT15=
EXTT16=
EXTT17=
EXTT18=
EXTT19=
PLAYORDER=
